<?xml version="1.0" standalone="no"?>
<svg xmlns:xlink="http://www.w3.org/1999/xlink" id="wave" style="transform:rotate(180deg); transition: 0.3s" viewBox="0 0 1440 490" version="1.1" xmlns="http://www.w3.org/2000/svg"><defs><linearGradient id="sw-gradient-0" x1="0" x2="0" y1="1" y2="0"><stop stop-color="rgba(21, 20, 24, 1)" offset="0%"/><stop stop-color="rgba(21, 20, 24, 1)" offset="100%"/></linearGradient></defs><path style="transform:translate(0, 0px); opacity:1" fill="url(#sw-gradient-0)" d="M0,245L60,277.7C120,310,240,376,360,408.3C480,441,600,441,720,416.5C840,392,960,343,1080,277.7C1200,212,1320,131,1440,106.2C1560,82,1680,114,1800,130.7C1920,147,2040,147,2160,179.7C2280,212,2400,278,2520,318.5C2640,359,2760,376,2880,343C3000,310,3120,229,3240,228.7C3360,229,3480,310,3600,302.2C3720,294,3840,196,3960,163.3C4080,131,4200,163,4320,212.3C4440,261,4560,327,4680,334.8C4800,343,4920,294,5040,269.5C5160,245,5280,245,5400,245C5520,245,5640,245,5760,269.5C5880,294,6000,343,6120,343C6240,343,6360,294,6480,236.8C6600,180,6720,114,6840,114.3C6960,114,7080,180,7200,228.7C7320,278,7440,310,7560,302.2C7680,294,7800,245,7920,253.2C8040,261,8160,327,8280,326.7C8400,327,8520,261,8580,228.7L8640,196L8640,490L8580,490C8520,490,8400,490,8280,490C8160,490,8040,490,7920,490C7800,490,7680,490,7560,490C7440,490,7320,490,7200,490C7080,490,6960,490,6840,490C6720,490,6600,490,6480,490C6360,490,6240,490,6120,490C6000,490,5880,490,5760,490C5640,490,5520,490,5400,490C5280,490,5160,490,5040,490C4920,490,4800,490,4680,490C4560,490,4440,490,4320,490C4200,490,4080,490,3960,490C3840,490,3720,490,3600,490C3480,490,3360,490,3240,490C3120,490,3000,490,2880,490C2760,490,2640,490,2520,490C2400,490,2280,490,2160,490C2040,490,1920,490,1800,490C1680,490,1560,490,1440,490C1320,490,1200,490,1080,490C960,490,840,490,720,490C600,490,480,490,360,490C240,490,120,490,60,490L0,490Z"/></svg>